<?xml version="1.0" encoding="utf-8" standalone="no"?>
<!DOCTYPE svg PUBLIC "-//W3C//DTD SVG 1.1//EN"
  "http://www.w3.org/Graphics/SVG/1.1/DTD/svg11.dtd">
<svg xmlns:xlink="http://www.w3.org/1999/xlink" width="632.879026pt" height="328.320337pt" viewBox="0 0 632.879026 328.320337" xmlns="http://www.w3.org/2000/svg" version="1.1">
 <metadata>
  <rdf:RDF xmlns:dc="http://purl.org/dc/elements/1.1/" xmlns:cc="http://creativecommons.org/ns#" xmlns:rdf="http://www.w3.org/1999/02/22-rdf-syntax-ns#">
   <cc:Work>
    <dc:type rdf:resource="http://purl.org/dc/dcmitype/StillImage"/>
    <dc:date>2026-05-25T21:03:45.968983</dc:date>
    <dc:format>image/svg+xml</dc:format>
    <dc:creator>
     <cc:Agent>
      <dc:title>Matplotlib v3.9.4, https://matplotlib.org/</dc:title>
     </cc:Agent>
    </dc:creator>
   </cc:Work>
  </rdf:RDF>
 </metadata>
 <defs>
  <style type="text/css">*{stroke-linejoin: round; stroke-linecap: butt}</style>
 </defs>
 <g id="figure_1">
  <g id="patch_1">
   <path d="M 0 328.320337 
L 632.879026 328.320337 
L 632.879026 0 
L 0 0 
z
" style="fill: #f6f1e6"/>
  </g>
  <g id="axes_1">
   <g id="patch_2">
    <path d="M 171.144 271.638423 
L 594.288 271.638423 
L 594.288 42.505623 
L 171.144 42.505623 
z
" style="fill: #f6f1e6"/>
   </g>
   <g id="matplotlib.axis_1">
    <g id="xtick_1">
     <g id="line2d_1">
      <path d="M 190.377818 271.638423 
L 190.377818 42.505623 
" clip-path="url(#p7472ada55b)" style="fill: none; stroke: #e3dbc9; stroke-opacity: 0.7; stroke-width: 0.8; stroke-linecap: square"/>
     </g>
     <g id="text_1">
      <text style="fill: #807a6f; font: 8.5px 'Charter', 'Georgia', 'DejaVu Serif'; text-anchor: middle" x="190.377818" y="281.392564" transform="rotate(-0 190.377818 281.392564)">0.0</text>
     </g>
    </g>
    <g id="xtick_2">
     <g id="line2d_2">
      <path d="M 250.4835 271.638423 
L 250.4835 42.505623 
" clip-path="url(#p7472ada55b)" style="fill: none; stroke: #e3dbc9; stroke-opacity: 0.7; stroke-width: 0.8; stroke-linecap: square"/>
     </g>
     <g id="text_2">
      <text style="fill: #807a6f; font: 8.5px 'Charter', 'Georgia', 'DejaVu Serif'; text-anchor: middle" x="250.4835" y="281.392564" transform="rotate(-0 250.4835 281.392564)">0.5</text>
     </g>
    </g>
    <g id="xtick_3">
     <g id="line2d_3">
      <path d="M 310.589182 271.638423 
L 310.589182 42.505623 
" clip-path="url(#p7472ada55b)" style="fill: none; stroke: #e3dbc9; stroke-opacity: 0.7; stroke-width: 0.8; stroke-linecap: square"/>
     </g>
     <g id="text_3">
      <text style="fill: #807a6f; font: 8.5px 'Charter', 'Georgia', 'DejaVu Serif'; text-anchor: middle" x="310.589182" y="281.392564" transform="rotate(-0 310.589182 281.392564)">1.0</text>
     </g>
    </g>
    <g id="xtick_4">
     <g id="line2d_4">
      <path d="M 370.694864 271.638423 
L 370.694864 42.505623 
" clip-path="url(#p7472ada55b)" style="fill: none; stroke: #e3dbc9; stroke-opacity: 0.7; stroke-width: 0.8; stroke-linecap: square"/>
     </g>
     <g id="text_4">
      <text style="fill: #807a6f; font: 8.5px 'Charter', 'Georgia', 'DejaVu Serif'; text-anchor: middle" x="370.694864" y="281.392564" transform="rotate(-0 370.694864 281.392564)">1.5</text>
     </g>
    </g>
    <g id="xtick_5">
     <g id="line2d_5">
      <path d="M 430.800545 271.638423 
L 430.800545 42.505623 
" clip-path="url(#p7472ada55b)" style="fill: none; stroke: #e3dbc9; stroke-opacity: 0.7; stroke-width: 0.8; stroke-linecap: square"/>
     </g>
     <g id="text_5">
      <text style="fill: #807a6f; font: 8.5px 'Charter', 'Georgia', 'DejaVu Serif'; text-anchor: middle" x="430.800545" y="281.392564" transform="rotate(-0 430.800545 281.392564)">2.0</text>
     </g>
    </g>
    <g id="xtick_6">
     <g id="line2d_6">
      <path d="M 490.906227 271.638423 
L 490.906227 42.505623 
" clip-path="url(#p7472ada55b)" style="fill: none; stroke: #e3dbc9; stroke-opacity: 0.7; stroke-width: 0.8; stroke-linecap: square"/>
     </g>
     <g id="text_6">
      <text style="fill: #807a6f; font: 8.5px 'Charter', 'Georgia', 'DejaVu Serif'; text-anchor: middle" x="490.906227" y="281.392564" transform="rotate(-0 490.906227 281.392564)">2.5</text>
     </g>
    </g>
    <g id="xtick_7">
     <g id="line2d_7">
      <path d="M 551.011909 271.638423 
L 551.011909 42.505623 
" clip-path="url(#p7472ada55b)" style="fill: none; stroke: #e3dbc9; stroke-opacity: 0.7; stroke-width: 0.8; stroke-linecap: square"/>
     </g>
     <g id="text_7">
      <text style="fill: #807a6f; font: 8.5px 'Charter', 'Georgia', 'DejaVu Serif'; text-anchor: middle" x="551.011909" y="281.392564" transform="rotate(-0 551.011909 281.392564)">3.0</text>
     </g>
    </g>
   </g>
   <g id="matplotlib.axis_2">
    <g id="ytick_1">
     <g id="text_8">
      <text style="fill: #1b1b1f; font: 8.5px 'Charter', 'Georgia', 'DejaVu Serif'; text-anchor: end" x="167.644" y="55.179894" transform="rotate(-0 167.644 55.179894)">Adversary Warning</text>
     </g>
    </g>
    <g id="ytick_2">
     <g id="text_9">
      <text style="fill: #1b1b1f; font: 8.5px 'Charter', 'Georgia', 'DejaVu Serif'" transform="translate(96.914703 114.77512)">Adversary Warning</text>
      <text style="fill: #1b1b1f; font: 8.5px 'Charter', 'Georgia', 'DejaVu Serif'" transform="translate(108.429547 124.131495)">Criteria Context</text>
     </g>
    </g>
    <g id="ytick_3">
     <g id="text_10">
      <text style="fill: #1b1b1f; font: 8.5px 'Charter', 'Georgia', 'DejaVu Serif'; text-anchor: end" x="167.644" y="182.475894" transform="rotate(-0 167.644 182.475894)">Base</text>
     </g>
    </g>
    <g id="ytick_4">
     <g id="text_11">
      <text style="fill: #1b1b1f; font: 8.5px 'Charter', 'Georgia', 'DejaVu Serif'; text-anchor: end" x="167.644" y="246.123894" transform="rotate(-0 167.644 246.123894)">Criteria Context</text>
     </g>
    </g>
   </g>
   <g id="patch_3">
    <path d="M 171.144 271.638423 
L 594.288 271.638423 
" style="fill: none; stroke: #e3dbc9; stroke-width: 0.9; stroke-linejoin: miter; stroke-linecap: square"/>
   </g>
   <g id="line2d_8">
    <path d="M 190.377818 52.052823 
L 569.043614 52.052823 
" clip-path="url(#p7472ada55b)" style="fill: none; stroke: #465c7e; stroke-opacity: 0.85; stroke-width: 2; stroke-linecap: square"/>
   </g>
   <g id="text_12">
    <text style="fill: #1b1b1f; font: 700 8.5px 'Charter', 'Iowan Old Style', 'Hoefler Text', 'Georgia', 'DejaVu Serif'; text-anchor: start" x="577.043614" y="54.254191" transform="rotate(-0 577.043614 54.254191)">3.15  n=20</text>
   </g>
   <g id="line2d_9">
    <path d="M 190.377818 115.700823 
L 563.033045 115.700823 
" clip-path="url(#p7472ada55b)" style="fill: none; stroke: #a6342b; stroke-opacity: 0.85; stroke-width: 2; stroke-linecap: square"/>
   </g>
   <g id="text_13">
    <text style="fill: #1b1b1f; font: 700 8.5px 'Charter', 'Iowan Old Style', 'Hoefler Text', 'Georgia', 'DejaVu Serif'; text-anchor: start" x="571.033045" y="117.902191" transform="rotate(-0 571.033045 117.902191)">3.10  n=20</text>
   </g>
   <g id="line2d_10">
    <path d="M 190.377818 179.348823 
L 575.054182 179.348823 
" clip-path="url(#p7472ada55b)" style="fill: none; stroke: #7a6b8e; stroke-opacity: 0.85; stroke-width: 2; stroke-linecap: square"/>
   </g>
   <g id="text_14">
    <text style="fill: #1b1b1f; font: 700 8.5px 'Charter', 'Iowan Old Style', 'Hoefler Text', 'Georgia', 'DejaVu Serif'; text-anchor: start" x="583.054182" y="181.550191" transform="rotate(-0 583.054182 181.550191)">3.20  n=20</text>
   </g>
   <g id="line2d_11">
    <path d="M 190.377818 242.996823 
L 569.043614 242.996823 
" clip-path="url(#p7472ada55b)" style="fill: none; stroke: #9c7a2f; stroke-opacity: 0.85; stroke-width: 2; stroke-linecap: square"/>
   </g>
   <g id="text_15">
    <text style="fill: #1b1b1f; font: 700 8.5px 'Charter', 'Iowan Old Style', 'Hoefler Text', 'Georgia', 'DejaVu Serif'; text-anchor: start" x="577.043614" y="245.198191" transform="rotate(-0 577.043614 245.198191)">3.15  n=20</text>
   </g>
   <g id="text_16">
    <text style="fill: #a6342b; font: 700 7.5px 'Charter', 'Iowan Old Style', 'Hoefler Text', 'Georgia', 'DejaVu Serif'; text-anchor: start" x="171.144" y="12.718359" transform="rotate(-0 171.144 12.718359)">BUCEPHALUS · BEHAVIORAL EXPERIMENT</text>
   </g>
   <g id="text_17">
    <text style="fill: #1b1b1f; font: 700 13px 'Charter', 'Iowan Old Style', 'Hoefler Text', 'Georgia', 'DejaVu Serif'; text-anchor: start" x="171.144" y="33.340311" transform="rotate(-0 171.144 33.340311)">Success</text>
   </g>
   <g id="PathCollection_1">
    <defs>
     <path id="ma8ba4a3842" d="M 0 5.91608 
C 1.568963 5.91608 3.073876 5.292724 4.1833 4.1833 
C 5.292724 3.073876 5.91608 1.568963 5.91608 0 
C 5.91608 -1.568963 5.292724 -3.073876 4.1833 -4.1833 
C 3.073876 -5.292724 1.568963 -5.91608 0 -5.91608 
C -1.568963 -5.91608 -3.073876 -5.292724 -4.1833 -4.1833 
C -5.292724 -3.073876 -5.91608 -1.568963 -5.91608 0 
C -5.91608 1.568963 -5.292724 3.073876 -4.1833 4.1833 
C -3.073876 5.292724 -1.568963 5.91608 0 5.91608 
z
" style="stroke: #f6f1e6; stroke-width: 2"/>
    </defs>
    <g clip-path="url(#p7472ada55b)">
     <use xlink:href="#ma8ba4a3842" x="569.043614" y="52.052823" style="fill: #465c7e; stroke: #f6f1e6; stroke-width: 2"/>
    </g>
   </g>
   <g id="PathCollection_2">
    <defs>
     <path id="mf02fb30ca8" d="M 0 5.91608 
C 1.568963 5.91608 3.073876 5.292724 4.1833 4.1833 
C 5.292724 3.073876 5.91608 1.568963 5.91608 0 
C 5.91608 -1.568963 5.292724 -3.073876 4.1833 -4.1833 
C 3.073876 -5.292724 1.568963 -5.91608 0 -5.91608 
C -1.568963 -5.91608 -3.073876 -5.292724 -4.1833 -4.1833 
C -5.292724 -3.073876 -5.91608 -1.568963 -5.91608 0 
C -5.91608 1.568963 -5.292724 3.073876 -4.1833 4.1833 
C -3.073876 5.292724 -1.568963 5.91608 0 5.91608 
z
" style="stroke: #f6f1e6; stroke-width: 2"/>
    </defs>
    <g clip-path="url(#p7472ada55b)">
     <use xlink:href="#mf02fb30ca8" x="563.033045" y="115.700823" style="fill: #a6342b; stroke: #f6f1e6; stroke-width: 2"/>
    </g>
   </g>
   <g id="PathCollection_3">
    <defs>
     <path id="m47abe3d97a" d="M 0 5.91608 
C 1.568963 5.91608 3.073876 5.292724 4.1833 4.1833 
C 5.292724 3.073876 5.91608 1.568963 5.91608 0 
C 5.91608 -1.568963 5.292724 -3.073876 4.1833 -4.1833 
C 3.073876 -5.292724 1.568963 -5.91608 0 -5.91608 
C -1.568963 -5.91608 -3.073876 -5.292724 -4.1833 -4.1833 
C -5.292724 -3.073876 -5.91608 -1.568963 -5.91608 0 
C -5.91608 1.568963 -5.292724 3.073876 -4.1833 4.1833 
C -3.073876 5.292724 -1.568963 5.91608 0 5.91608 
z
" style="stroke: #f6f1e6; stroke-width: 2"/>
    </defs>
    <g clip-path="url(#p7472ada55b)">
     <use xlink:href="#m47abe3d97a" x="575.054182" y="179.348823" style="fill: #7a6b8e; stroke: #f6f1e6; stroke-width: 2"/>
    </g>
   </g>
   <g id="PathCollection_4">
    <defs>
     <path id="mebfb6ca2db" d="M 0 5.91608 
C 1.568963 5.91608 3.073876 5.292724 4.1833 4.1833 
C 5.292724 3.073876 5.91608 1.568963 5.91608 0 
C 5.91608 -1.568963 5.292724 -3.073876 4.1833 -4.1833 
C 3.073876 -5.292724 1.568963 -5.91608 0 -5.91608 
C -1.568963 -5.91608 -3.073876 -5.292724 -4.1833 -4.1833 
C -5.292724 -3.073876 -5.91608 -1.568963 -5.91608 0 
C -5.91608 1.568963 -5.292724 3.073876 -4.1833 4.1833 
C -3.073876 5.292724 -1.568963 5.91608 0 5.91608 
z
" style="stroke: #f6f1e6; stroke-width: 2"/>
    </defs>
    <g clip-path="url(#p7472ada55b)">
     <use xlink:href="#mebfb6ca2db" x="569.043614" y="242.996823" style="fill: #9c7a2f; stroke: #f6f1e6; stroke-width: 2"/>
    </g>
   </g>
  </g>
  <g id="text_18">
   <text style="fill: #807a6f; font: italic 7.5px 'Charter', 'Georgia', 'DejaVu Serif'; text-anchor: start" x="7.2" y="319.486743" transform="rotate(-0 7.2 319.486743)">Point estimates over gradeable trials.  See forest plot for 95% confidence intervals.</text>
  </g>
 </g>
 <defs>
  <clipPath id="p7472ada55b">
   <rect x="171.144" y="42.505623" width="423.144" height="229.1328"/>
  </clipPath>
 </defs>
</svg>
